<?xml version="1.0" encoding="UTF-8" standalone="no"?>
<svg
   width="561.3pt"
   height="360.1pt"
   version="1.1"
   viewBox="0 0 561.3 360.1"
   id="svg19326"
   sodipodi:docname="Data_warehouse_overview-v1_3.svg"
   inkscape:version="1.2.2 (b0a8486541, 2022-12-01)"
   inkscape:export-filename="Data_warehouse_overview-v1_3.pdf"
   inkscape:export-xdpi="98.4866"
   inkscape:export-ydpi="98.4866"
   xmlns:inkscape="http://www.inkscape.org/namespaces/inkscape"
   xmlns:sodipodi="http://sodipodi.sourceforge.net/DTD/sodipodi-0.dtd"
   xmlns="http://www.w3.org/2000/svg"
   xmlns:svg="http://www.w3.org/2000/svg"
   xmlns:rdf="http://www.w3.org/1999/02/22-rdf-syntax-ns#"
   xmlns:cc="http://creativecommons.org/ns#"
   xmlns:dc="http://purl.org/dc/elements/1.1/">
  <sodipodi:namedview
     id="namedview19328"
     pagecolor="#ffffff"
     bordercolor="#666666"
     borderopacity="1.0"
     inkscape:showpageshadow="2"
     inkscape:pageopacity="0.0"
     inkscape:pagecheckerboard="0"
     inkscape:deskcolor="#d1d1d1"
     inkscape:document-units="pt"
     showgrid="false"
     inkscape:zoom="1.6516245"
     inkscape:cx="252.17596"
     inkscape:cy="172.86011"
     inkscape:window-width="1920"
     inkscape:window-height="980"
     inkscape:window-x="0"
     inkscape:window-y="0"
     inkscape:window-maximized="1"
     inkscape:current-layer="svg19326" />
  <title
     id="title18877">Data Warehouse</title>
  <defs
     id="defs18882">
    <clipPath
       id="clip_1">
      <path
         transform="scale(.24)"
         d="m0 0h2479.2v3503.2h-2479.2z"
         fill-rule="evenodd"
         id="path18879" />
    </clipPath>
  </defs>
  <g
     clip-path="url(#clip_1)"
     id="g19322">
    <path
       transform="matrix(.7186 0 0 .7186 .3593 .3593)"
       d="m75 0h630c2.4564 0 4.9068 0.12038 7.3513 0.36115 2.4445 0.24076 4.8713 0.60075 7.2804 1.08 2.4092 0.47921 4.789 1.0753 7.1397 1.7884 2.3505 0.71304 4.6604 1.5396 6.9298 2.4796 2.2693 0.94 4.4872 1.989 6.6535 3.1469 2.1663 1.1579 4.2706 2.4192 6.3129 3.7839 2.0424 1.3647 4.013 2.8262 5.9118 4.3844 1.8988 1.5583 3.7166 3.2059 5.4535 4.9428 1.7369 1.7369 3.3845 3.5547 4.9429 5.4535 1.5583 1.8988 3.0197 3.8694 4.3843 5.9117 1.3647 2.0424 2.626 4.1467 3.7839 6.313s2.2068 4.3841 3.1469 6.6535c0.94 2.2694 1.7665 4.5793 2.4796 6.9299 0.71301 2.3506 1.3091 4.7304 1.7883 7.1396 0.4792 2.4092 0.8393 4.836 1.0801 7.2805 0.24078 2.4445 0.36112 4.8949 0.36112 7.3513v350c0 2.4563-0.12034 4.9068-0.36112 7.3513-0.24078 2.4445-0.60088 4.8713-1.0801 7.2804-0.4792 2.4092-1.0753 4.7891-1.7884 7.1396-0.713 2.3506-1.5395 4.6605-2.4795 6.9299-0.94006 2.2694-1.989 4.4872-3.1469 6.6535s-2.4192 4.2706-3.7839 6.313c-1.3646 2.0424-2.826 4.013-4.3843 5.9118-1.5584 1.8988-3.206 3.7166-4.9429 5.4535-1.7369 1.7369-3.5547 3.3845-5.4535 4.9428-1.8988 1.5582-3.8694 3.0197-5.9118 4.3844-2.0423 1.3647-4.1466 2.626-6.3129 3.7839-2.1663 1.1579-4.3842 2.2069-6.6535 3.1469-2.2694 0.94003-4.5793 1.7666-6.9298 2.4796-2.3507 0.71304-4.7305 1.3091-7.1397 1.7884-2.4091 0.47922-4.8359 0.83923-7.2804 1.08-2.4445 0.24077-4.8949 0.36117-7.3513 0.36117h-630c-2.4563 0-4.9068-0.1204-7.3513-0.36117-2.4445-0.24075-4.8714-0.60076-7.2805-1.08-2.4091-0.47922-4.789-1.0753-7.1396-1.7884-2.3506-0.71305-4.6605-1.5396-6.9299-2.4796-2.2694-0.94-4.4872-1.989-6.6535-3.1469-2.1663-1.1579-4.2706-2.4192-6.313-3.7839-2.0424-1.3646-4.0129-2.8261-5.9117-4.3844-1.8988-1.5583-3.7166-3.2059-5.4535-4.9428-1.7369-1.7369-3.3845-3.5547-4.9428-5.4535-1.5583-1.8988-3.0198-3.8694-4.3844-5.9118-1.3647-2.0424-2.626-4.1467-3.7839-6.313-1.1579-2.1663-2.2069-4.3841-3.1469-6.6535-0.94-2.2694-1.7665-4.5793-2.4796-6.9299-0.71304-2.3505-1.3092-4.7304-1.7884-7.1396-0.47921-2.4091-0.83919-4.8359-1.08-7.2804-0.24076-2.4445-0.36115-4.895-0.36115-7.3513v-350c0-2.4563 0.12038-4.9068 0.36115-7.3513 0.24076-2.4445 0.60075-4.8714 1.08-7.2805 0.47921-2.4091 1.0753-4.789 1.7884-7.1396 0.71304-2.3506 1.5396-4.6605 2.4796-6.9299 0.94-2.2694 1.989-4.4872 3.1469-6.6535s2.4192-4.2706 3.7839-6.313c1.3647-2.0424 2.8262-4.0129 4.3844-5.9117 1.5583-1.8988 3.2059-3.7166 4.9428-5.4535 1.7369-1.7369 3.5547-3.3845 5.4535-4.9428 1.8988-1.5583 3.8694-3.0198 5.9117-4.3844 2.0424-1.3647 4.1467-2.626 6.313-3.7839 2.1663-1.1579 4.3841-2.2069 6.6535-3.1469 2.2694-0.94 4.5793-1.7665 6.9299-2.4796 2.3506-0.71304 4.7304-1.3092 7.1396-1.7884 2.4092-0.47921 4.836-0.83919 7.2805-1.08 2.4445-0.24076 4.8949-0.36115 7.3513-0.36115z"
       fill="#e1d5e7"
       id="path18884" />
    <text
       transform="translate(239.63,33.478)"
       x="187.87488"
       y="59.695686"
       font-family="Verdana"
       font-size="9px"
       letter-spacing="0px"
       stroke-width="0.75"
       word-spacing="0px"
       style="line-height:1.25;white-space:pre;inline-size:127.284;display:inline"
       xml:space="preserve"
       id="text18886" />
    <path
       transform="matrix(.7186 0 0 .7186 .3593 .3593)"
       d="m75 0h630c2.4564 0 4.9068 0.12038 7.3513 0.36115 2.4445 0.24076 4.8713 0.60075 7.2804 1.08 2.4092 0.47921 4.789 1.0753 7.1397 1.7884 2.3505 0.71304 4.6604 1.5396 6.9298 2.4796 2.2693 0.94 4.4872 1.989 6.6535 3.1469 2.1663 1.1579 4.2706 2.4192 6.3129 3.7839 2.0424 1.3647 4.013 2.8262 5.9118 4.3844 1.8988 1.5583 3.7166 3.2059 5.4535 4.9428 1.7369 1.7369 3.3845 3.5547 4.9429 5.4535 1.5583 1.8988 3.0197 3.8694 4.3843 5.9117 1.3647 2.0424 2.626 4.1467 3.7839 6.313s2.2068 4.3841 3.1469 6.6535c0.94 2.2694 1.7665 4.5793 2.4796 6.9299 0.71301 2.3506 1.3091 4.7304 1.7883 7.1396 0.4792 2.4092 0.8393 4.836 1.0801 7.2805 0.24078 2.4445 0.36112 4.8949 0.36112 7.3513v350c0 2.4563-0.12034 4.9068-0.36112 7.3513-0.24078 2.4445-0.60088 4.8713-1.0801 7.2804-0.4792 2.4092-1.0753 4.7891-1.7884 7.1396-0.713 2.3506-1.5395 4.6605-2.4795 6.9299-0.94006 2.2694-1.989 4.4872-3.1469 6.6535s-2.4192 4.2706-3.7839 6.313c-1.3646 2.0424-2.826 4.013-4.3843 5.9118-1.5584 1.8988-3.206 3.7166-4.9429 5.4535-1.7369 1.7369-3.5547 3.3845-5.4535 4.9428-1.8988 1.5582-3.8694 3.0197-5.9118 4.3844-2.0423 1.3647-4.1466 2.626-6.3129 3.7839-2.1663 1.1579-4.3842 2.2069-6.6535 3.1469-2.2694 0.94003-4.5793 1.7666-6.9298 2.4796-2.3507 0.71304-4.7305 1.3091-7.1397 1.7884-2.4091 0.47922-4.8359 0.83923-7.2804 1.08-2.4445 0.24077-4.8949 0.36117-7.3513 0.36117h-630c-2.4563 0-4.9068-0.1204-7.3513-0.36117-2.4445-0.24075-4.8714-0.60076-7.2805-1.08-2.4091-0.47922-4.789-1.0753-7.1396-1.7884-2.3506-0.71305-4.6605-1.5396-6.9299-2.4796-2.2694-0.94-4.4872-1.989-6.6535-3.1469-2.1663-1.1579-4.2706-2.4192-6.313-3.7839-2.0424-1.3646-4.0129-2.8261-5.9117-4.3844-1.8988-1.5583-3.7166-3.2059-5.4535-4.9428-1.7369-1.7369-3.3845-3.5547-4.9428-5.4535-1.5583-1.8988-3.0198-3.8694-4.3844-5.9118-1.3647-2.0424-2.626-4.1467-3.7839-6.313-1.1579-2.1663-2.2069-4.3841-3.1469-6.6535-0.94-2.2694-1.7665-4.5793-2.4796-6.9299-0.71304-2.3505-1.3092-4.7304-1.7884-7.1396-0.47921-2.4091-0.83919-4.8359-1.08-7.2804-0.24076-2.4445-0.36115-4.895-0.36115-7.3513v-350c0-2.4563 0.12038-4.9068 0.36115-7.3513 0.24076-2.4445 0.60075-4.8714 1.08-7.2805 0.47921-2.4091 1.0753-4.789 1.7884-7.1396 0.71304-2.3506 1.5396-4.6605 2.4796-6.9299 0.94-2.2694 1.989-4.4872 3.1469-6.6535s2.4192-4.2706 3.7839-6.313c1.3647-2.0424 2.8262-4.0129 4.3844-5.9117 1.5583-1.8988 3.2059-3.7166 4.9428-5.4535 1.7369-1.7369 3.5547-3.3845 5.4535-4.9428 1.8988-1.5583 3.8694-3.0198 5.9117-4.3844 2.0424-1.3647 4.1467-2.626 6.313-3.7839 2.1663-1.1579 4.3841-2.2069 6.6535-3.1469 2.2694-0.94 4.5793-1.7665 6.9299-2.4796 2.3506-0.71304 4.7304-1.3092 7.1396-1.7884 2.4092-0.47921 4.836-0.83919 7.2805-1.08 2.4445-0.24076 4.8949-0.36115 7.3513-0.36115z"
       fill="none"
       stroke="#9673a6"
       id="path18888" />
    <path
       transform="matrix(.7186 0 0 .7186 .3593 .3593)"
       d="m244 10h280v60h-280z"
       fill="#fff"
       id="path18890" />
    <path
       transform="matrix(.7186 0 0 .7186 .3593 .3593)"
       d="m244 10h280v60h-280z"
       fill="none"
       stroke="#000"
       id="path18892" />
    <path
       transform="matrix(.7186 0 0 .7186 .3593 .3593)"
       d="m40 100h110v310h-110z"
       fill="#fff"
       id="path18894" />
    <path
       transform="matrix(.7186 0 0 .7186 .3593 .3593)"
       d="m40 100h110v310h-110z"
       fill="none"
       stroke="#000"
       id="path18896" />
    <path
       transform="matrix(.7186 0 0 .7186 .3593 .3593)"
       d="m40 100h110v60h-110z"
       fill="#fff"
       id="path18898" />
    <path
       transform="matrix(.7186 0 0 .7186 .3593 .3593)"
       d="m40 100h110v60h-110z"
       fill="none"
       stroke="#000"
       id="path18900" />
    <path
       transform="matrix(.7186 0 0 .7186 .3593 .3593)"
       d="m30 422.5h130v50h-130z"
       fill="#ffe796"
       id="path18902" />
    <path
       transform="matrix(.7186 0 0 .7186 .3593 .3593)"
       d="m30 422.5h130v50h-130z"
       fill="none"
       stroke="#000"
       id="path18904" />
    <path
       transform="matrix(.7186 0 0 .7186 .3593 .3593)"
       d="m40 430h110v35h-110z"
       fill="#fff"
       id="path18906" />
    <path
       transform="matrix(.7186 0 0 .7186 .3593 .3593)"
       d="m40 430h110v35h-110z"
       fill="none"
       stroke="#000"
       id="path18908" />
    <g
       transform="scale(.7186)"
       aria-label="External Data"
       id="g18934">
      <path
         d="m51.369 453h-6.3086v-11.903h6.043v1.2617h-4.6484v3.9595h4.2998v1.2534h-4.2998v4.167h4.9141z"
         id="path18910" />
      <path
         d="m62.426 444.5-2.8555 4.2998 2.8057 4.2002h-1.5854l-1.6685-2.7559q-0.15772-0.25732-0.37354-0.64746h-0.0332q-0.0415 0.0747-0.39014 0.64746l-1.7017 2.7559h-1.5688l2.897-4.167-2.7725-4.333h1.5854l1.6436 2.9053q0.18262 0.32373 0.35693 0.66407h0.0332l2.125-3.5693z"
         id="path18912" />
      <path
         d="m68.66 452.92q-0.48144 0.26563-1.27 0.26563-2.2329 0-2.2329-2.4902v-5.0303h-1.4609v-1.1621h1.4609v-2.0752l1.3613-0.43994v2.5151h2.1416v1.1621h-2.1416v4.7896q0 0.85498 0.29053 1.2202 0.29053 0.36524 0.96289 0.36524 0.51465 0 0.88818-0.28223z"
         id="path18914" />
      <path
         d="m76.274 449.09h-6.0015q0.0332 1.4194 0.76367 2.1914 0.73047 0.77197 2.0088 0.77197 1.436 0 2.6396-0.94629v1.2783q-1.1206 0.81348-2.9634 0.81348-1.8013 0-2.8306-1.1538-1.0293-1.1621-1.0293-3.2622 0-1.9839 1.1206-3.229 1.1289-1.2534 2.7974-1.2534t2.5815 1.0791 0.91309 2.9966zm-1.3945-1.1538q-0.0083-1.1787-0.57275-1.8345-0.55615-0.65576-1.5522-0.65576-0.96289 0-1.6353 0.68896-0.67236 0.68897-0.83008 1.8013z"
         id="path18916" />
      <path
         d="m83.328 445.88q-0.35693-0.27393-1.0293-0.27393-0.87158 0-1.4609 0.82178-0.58105 0.82178-0.58105 2.2412v4.333h-1.3613v-8.5h1.3613v1.7515h0.0332q0.29053-0.89648 0.88818-1.3945 0.59766-0.50634 1.3364-0.50634 0.53125 0 0.81348 0.11621z"
         id="path18918" />
      <path
         d="m91.612 453h-1.3613v-4.8477q0-2.706-1.9756-2.706-1.021 0-1.6934 0.77197-0.66406 0.76367-0.66406 1.9341v4.8477h-1.3613v-8.5h1.3613v1.4111h0.0332q0.96289-1.6104 2.7891-1.6104 1.3945 0 2.1333 0.90479 0.73877 0.89648 0.73877 2.5981z"
         id="path18920" />
      <path
         d="m100.09 453h-1.3613v-1.3281h-0.0332q-0.88818 1.5274-2.6147 1.5274-1.27 0-1.9922-0.67236-0.71387-0.67237-0.71387-1.7847 0-2.3823 2.8057-2.7725l2.5483-0.35694q0-2.1665-1.7515-2.1665-1.5356 0-2.7725 1.0459v-1.3945q1.2534-0.79688 2.8887-0.79688 2.9966 0 2.9966 3.1709zm-1.3613-4.2998-2.0503 0.28222q-0.94629 0.13281-1.4277 0.47315-0.48144 0.33203-0.48144 1.187 0 0.62256 0.43994 1.021 0.44824 0.39014 1.187 0.39014 1.0127 0 1.6685-0.70557 0.66406-0.71386 0.66406-1.8013z"
         id="path18922" />
      <path
         d="m104.82 453h-1.3613v-12.584h1.3613z"
         id="path18924" />
      <path
         d="m112.14 453v-11.903h3.2871q6.292 0 6.292 5.8022 0 2.7559-1.7515 4.4326-1.7432 1.6685-4.6733 1.6685zm1.3945-10.642v9.3799h1.7764q2.3408 0 3.644-1.2534 1.3032-1.2534 1.3032-3.5527 0-4.5737-4.8642-4.5737z"
         id="path18926" />
      <path
         d="m130.32 453h-1.3613v-1.3281h-0.0332q-0.88818 1.5274-2.6148 1.5274-1.27 0-1.9922-0.67236-0.71387-0.67237-0.71387-1.7847 0-2.3823 2.8057-2.7725l2.5483-0.35694q0-2.1665-1.7515-2.1665-1.5356 0-2.7725 1.0459v-1.3945q1.2534-0.79688 2.8887-0.79688 2.9966 0 2.9966 3.1709zm-1.3613-4.2998-2.0503 0.28222q-0.94629 0.13281-1.4277 0.47315-0.48144 0.33203-0.48144 1.187 0 0.62256 0.43994 1.021 0.44824 0.39014 1.187 0.39014 1.0127 0 1.6685-0.70557 0.66406-0.71386 0.66406-1.8013z"
         id="path18928" />
      <path
         d="m137.63 452.92q-0.48144 0.26563-1.27 0.26563-2.2329 0-2.2329-2.4902v-5.0303h-1.4609v-1.1621h1.4609v-2.0752l1.3613-0.43994v2.5151h2.1416v1.1621h-2.1416v4.7896q0 0.85498 0.29053 1.2202 0.29053 0.36524 0.96289 0.36524 0.51465 0 0.88818-0.28223z"
         id="path18930" />
      <path
         d="m144.5 453h-1.3613v-1.3281h-0.0332q-0.88818 1.5274-2.6147 1.5274-1.27 0-1.9922-0.67236-0.71387-0.67237-0.71387-1.7847 0-2.3823 2.8057-2.7725l2.5483-0.35694q0-2.1665-1.7515-2.1665-1.5356 0-2.7725 1.0459v-1.3945q1.2534-0.79688 2.8887-0.79688 2.9966 0 2.9966 3.1709zm-1.3613-4.2998-2.0503 0.28222q-0.94629 0.13281-1.4277 0.47315-0.48145 0.33203-0.48145 1.187 0 0.62256 0.43994 1.021 0.44825 0.39014 1.187 0.39014 1.0127 0 1.6684-0.70557 0.66407-0.71386 0.66407-1.8013z"
         id="path18932" />
    </g>
    <path
       transform="matrix(.7186 0 0 .7186 .3593 .3593)"
       d="m50 170h90v30h-90z"
       fill="#b1ddf0"
       id="path18936" />
    <path
       transform="matrix(.7186 0 0 .7186 .3593 .3593)"
       d="m50 170h90v30h-90z"
       fill="none"
       stroke="#000"
       id="path18938" />
    <path
       transform="matrix(.7186 0 0 .7186 .3593 .3593)"
       d="m50 210h90v50h-90z"
       fill="#d5e8d4"
       id="path18940" />
    <path
       transform="matrix(.7186 0 0 .7186 .3593 .3593)"
       d="m50 210h90v50h-90z"
       fill="none"
       stroke="#000"
       id="path18942" />
    <g
       transform="scale(.7186)"
       aria-label="Sales"
       id="g18954">
      <path
         d="m74.739 239.52v-1.6436q0.28223 0.24902 0.67236 0.44824 0.39844 0.19922 0.83008 0.34033 0.43994 0.13282 0.87988 0.20752 0.43994 0.0747 0.81348 0.0747 1.2866 0 1.9175-0.47314 0.63916-0.48145 0.63916-1.3779 0-0.48145-0.21582-0.83838-0.20752-0.35694-0.58106-0.64746-0.37354-0.29883-0.88818-0.56446-0.50635-0.27392-1.0957-0.57275-0.62256-0.31543-1.1621-0.63916t-0.93799-0.71387q-0.39844-0.39013-0.63086-0.87988-0.22412-0.49805-0.22412-1.1621 0-0.81348 0.35693-1.4111 0.35693-0.60596 0.93799-0.9961 0.58106-0.39013 1.3198-0.58105 0.74707-0.19092 1.519-0.19092 1.7598 0 2.5649 0.42334v1.5688q-1.0542-0.73047-2.7061-0.73047-0.45654 0-0.91309 0.0996-0.45654 0.0913-0.81348 0.30713-0.35693 0.21582-0.58105 0.55615t-0.22412 0.83008q0 0.45654 0.16602 0.78857 0.17432 0.33203 0.50635 0.60596t0.80518 0.53125q0.48144 0.25732 1.104 0.56445 0.63916 0.31543 1.2119 0.66407 0.57275 0.34863 1.0044 0.77197 0.43164 0.42334 0.68066 0.93799 0.25732 0.51464 0.25732 1.1787 0 0.87988-0.34863 1.4941-0.34033 0.60595-0.92969 0.98779-0.58106 0.38184-1.3447 0.54785-0.76367 0.17432-1.6104 0.17432-0.28223 0-0.69727-0.0498-0.41504-0.0415-0.84668-0.13281-0.43164-0.083-0.82178-0.20752-0.38184-0.13281-0.61426-0.29053z"
         id="path18944" />
      <path
         d="m92.536 240h-1.3613v-1.3281h-0.0332q-0.88818 1.5274-2.6147 1.5274-1.27 0-1.9922-0.67236-0.71387-0.67237-0.71387-1.7847 0-2.3823 2.8057-2.7725l2.5483-0.35694q0-2.1665-1.7515-2.1665-1.5356 0-2.7725 1.0459v-1.3945q1.2534-0.79688 2.8887-0.79688 2.9966 0 2.9966 3.1709zm-1.3613-4.2998-2.0503 0.28222q-0.94629 0.13281-1.4277 0.47315-0.48144 0.33203-0.48144 1.187 0 0.62256 0.43994 1.021 0.44824 0.39014 1.187 0.39014 1.0127 0 1.6685-0.70557 0.66406-0.71386 0.66406-1.8013z"
         id="path18946" />
      <path
         d="m97.265 240h-1.3613v-12.584h1.3613z"
         id="path18948" />
      <path
         d="m106.51 236.09h-6.0015q0.0332 1.4194 0.76367 2.1914t2.0088 0.77197q1.436 0 2.6396-0.94629v1.2783q-1.1206 0.81348-2.9634 0.81348-1.8013 0-2.8306-1.1538-1.0293-1.1621-1.0293-3.2622 0-1.9839 1.1206-3.229 1.1289-1.2534 2.7974-1.2534t2.5815 1.0791q0.91309 1.0791 0.91309 2.9966zm-1.3945-1.1538q-8e-3 -1.1787-0.57276-1.8345-0.55615-0.65576-1.5522-0.65576-0.96289 0-1.6353 0.68896-0.67236 0.68897-0.83008 1.8013z"
         id="path18950" />
      <path
         d="m108.61 239.69v-1.4609q1.1123 0.82178 2.4487 0.82178 1.793 0 1.793-1.1953 0-0.34033-0.15772-0.57276-0.14941-0.24072-0.41503-0.42334-0.25733-0.18261-0.61426-0.32373-0.34864-0.14941-0.75537-0.30712-0.56446-0.22413-0.9961-0.44825-0.42334-0.23242-0.71386-0.51465-0.28223-0.29052-0.43165-0.65576-0.14111-0.36523-0.14111-0.85498 0-0.59765 0.27393-1.0542 0.27392-0.46484 0.73047-0.77197 0.45654-0.31543 1.0376-0.47314 0.58936-0.15772 1.2119-0.15772 1.104 0 1.9756 0.38184v1.3779q-0.93798-0.61426-2.1582-0.61426-0.38184 0-0.68896 0.0913-0.30713 0.083-0.53125 0.24072-0.21582 0.15772-0.34034 0.38184-0.11621 0.21582-0.11621 0.48144 0 0.33203 0.11621 0.55615 0.12452 0.22412 0.35694 0.39844t0.56445 0.31543 0.75537 0.30713q0.56445 0.21582 1.0127 0.44824 0.44824 0.22412 0.76367 0.51465 0.31543 0.28223 0.48144 0.65576 0.17432 0.37354 0.17432 0.88819 0 0.63086-0.28223 1.0957-0.27392 0.46484-0.73877 0.77197-0.46484 0.30713-1.0708 0.45654-0.60595 0.14942-1.27 0.14942-1.3115 0-2.2744-0.50635z"
         id="path18952" />
    </g>
    <path
       transform="matrix(.7186 0 0 .7186 .3593 .3593)"
       d="m50 270h90v60h-90z"
       fill="#fff2cc"
       id="path18956" />
    <path
       transform="matrix(.7186 0 0 .7186 .3593 .3593)"
       d="m50 270h90v60h-90z"
       fill="none"
       stroke="#000"
       id="path18958" />
    <g
       transform="scale(.7186)"
       aria-label="ERP"
       id="g18966">
      <path
         d="m85.385 305h-6.3086v-11.903h6.043v1.2617h-4.6484v3.9595h4.2998v1.2534h-4.2998v4.167h4.9141z"
         id="path18960" />
      <path
         d="m98.948 305h-1.6602l-1.9922-3.3369q-0.27393-0.46485-0.53125-0.78858-0.25732-0.33203-0.53125-0.53955-0.26562-0.20752-0.58106-0.29883-0.30713-0.0996-0.69727-0.0996h-1.1455v5.0635h-1.3945v-11.903h3.5527q0.78027 0 1.436 0.19922 0.66406 0.19092 1.1455 0.58935 0.48975 0.39844 0.76367 0.9961 0.27392 0.58935 0.27392 1.3862 0 0.62256-0.19092 1.1455-0.18262 0.51464-0.53125 0.92138-0.34033 0.40674-0.83008 0.69727-0.48144 0.28222-1.0874 0.43994v0.0332q0.29883 0.13282 0.51465 0.30713 0.22412 0.16602 0.42334 0.39844t0.39014 0.53125q0.19922 0.29053 0.43994 0.68066zm-7.1387-10.642v4.3164h1.8926q0.52295 0 0.96289-0.15771 0.44824-0.15772 0.77197-0.44824 0.32373-0.29883 0.50635-0.72217 0.18262-0.43164 0.18262-0.96289 0-0.95459-0.62256-1.4858-0.61426-0.53955-1.7847-0.53955z"
         id="path18962" />
      <path
         d="m104.08 300.5v4.499h-1.3945v-11.903h3.2705q1.9092 0 2.9551 0.92969 1.0542 0.92968 1.0542 2.623t-1.1704 2.7725q-1.1621 1.0791-3.146 1.0791zm0-6.1426v4.8809h1.4609q1.4443 0 2.1997-0.65576 0.76368-0.66407 0.76368-1.8677 0-2.3574-2.7891-2.3574z"
         id="path18964" />
    </g>
    <path
       transform="matrix(.7186 0 0 .7186 .3593 .3593)"
       d="m50 340h90v60h-90z"
       fill="#d5e8d4"
       id="path18968" />
    <path
       transform="matrix(.7186 0 0 .7186 .3593 .3593)"
       d="m50 340h90v60h-90z"
       fill="none"
       stroke="#000"
       id="path18970" />
    <g
       transform="scale(.7186)"
       aria-label="SCM"
       id="g18978">
      <path
         d="m77.114 374.52v-1.6436q0.28223 0.24902 0.67236 0.44824 0.39844 0.19922 0.83008 0.34033 0.43994 0.13282 0.87988 0.20752 0.43994 0.0747 0.81348 0.0747 1.2866 0 1.9175-0.47314 0.63916-0.48145 0.63916-1.3779 0-0.48145-0.21582-0.83838-0.20752-0.35694-0.58106-0.64746-0.37354-0.29883-0.88818-0.56446-0.50635-0.27392-1.0957-0.57275-0.62256-0.31543-1.1621-0.63916t-0.93799-0.71387q-0.39844-0.39013-0.63086-0.87988-0.22412-0.49805-0.22412-1.1621 0-0.81348 0.35693-1.4111 0.35693-0.60596 0.93799-0.9961 0.58106-0.39013 1.3198-0.58105 0.74707-0.19092 1.519-0.19092 1.7598 0 2.5649 0.42334v1.5688q-1.0542-0.73047-2.7061-0.73047-0.45654 0-0.91309 0.0996-0.45654 0.0913-0.81348 0.30713-0.35693 0.21582-0.58105 0.55615t-0.22412 0.83008q0 0.45654 0.16602 0.78857 0.17432 0.33203 0.50635 0.60596t0.80518 0.53125q0.48144 0.25732 1.104 0.56445 0.63916 0.31543 1.2119 0.66407 0.57275 0.34863 1.0044 0.77197 0.43164 0.42334 0.68066 0.93799 0.25732 0.51464 0.25732 1.1787 0 0.87988-0.34863 1.4941-0.34033 0.60595-0.92969 0.98779-0.58106 0.38184-1.3447 0.54785-0.76367 0.17432-1.6104 0.17432-0.28223 0-0.69727-0.0498-0.41504-0.0415-0.84668-0.13281-0.43164-0.083-0.82178-0.20752-0.38184-0.13281-0.61426-0.29053z"
         id="path18972" />
      <path
         d="m97.11 374.5q-1.3198 0.69727-3.2871 0.69727-2.54 0-4.0674-1.6353-1.5273-1.6352-1.5273-4.2915 0-2.8555 1.7183-4.6152 1.7183-1.7598 4.3579-1.7598 1.6934 0 2.8057 0.48975v1.4858q-1.2783-0.71387-2.8223-0.71387-2.0503 0-3.3286 1.3696-1.27 1.3696-1.27 3.6606 0 2.1748 1.187 3.4697 1.1953 1.2866 3.1294 1.2866 1.793 0 3.1045-0.79687z"
         id="path18974" />
      <path
         d="m113.42 375h-1.3862v-7.9854q0-0.94629 0.11621-2.3159h-0.0332q-0.19922 0.80518-0.35694 1.1538l-4.0674 9.1475h-0.68066l-4.0591-9.081q-0.17432-0.39844-0.35694-1.2202h-0.0332q0.0664 0.71387 0.0664 2.3325v7.9688h-1.3447v-11.903h1.8428l3.6524 8.3008q0.42334 0.95459 0.54785 1.4277h0.0498q0.35694-0.9795 0.57276-1.4609l3.727-8.2676h1.7432z"
         id="path18976" />
    </g>
    <path
       transform="matrix(.7186 0 0 .7186 .3593 .3593)"
       d="m210 100h110v310h-110z"
       fill="#fff"
       id="path18980" />
    <path
       transform="matrix(.7186 0 0 .7186 .3593 .3593)"
       d="m210 100h110v310h-110z"
       fill="none"
       stroke="#000"
       id="path18982" />
    <path
       transform="matrix(.7186 0 0 .7186 .3593 .3593)"
       d="m380 100h150v310h-150z"
       fill="#fff"
       id="path18984" />
    <path
       transform="matrix(.7186 0 0 .7186 .3593 .3593)"
       d="m380 100h150v310h-150z"
       fill="none"
       stroke="#000"
       id="path18986" />
    <path
       transform="matrix(.7186 0 0 .7186 .3593 .3593)"
       d="m150.5 249.36v-29h33.01v-10.5l25.99 25-25.99 25v-10.5z"
       fill="#7ea6e0"
       id="path18988" />
    <path
       transform="matrix(.7186 0 0 .7186 .3593 .3593)"
       d="m150.5 249.36v-29h33.01v-10.5l25.99 25-25.99 25v-10.5z"
       fill="none"
       stroke="#000"
       stroke-miterlimit="10"
       id="path18990" />
    <path
       transform="matrix(.7186 0 0 .7186 .3593 .3593)"
       d="m320.5 248.91v-29h33.01v-10.5l25.99 25-25.99 25v-10.5z"
       fill="#7ea6e0"
       id="path18992" />
    <path
       transform="matrix(.7186 0 0 .7186 .3593 .3593)"
       d="m320.5 248.91v-29h33.01v-10.5l25.99 25-25.99 25v-10.5z"
       fill="none"
       stroke="#000"
       stroke-miterlimit="10"
       id="path18994" />
    <path
       transform="matrix(.7186 0 0 .7186 .3593 .3593)"
       d="m320.5 343.32v-29h33.01v-10.5l25.99 25-25.99 25v-10.5z"
       fill="#7ea6e0"
       id="path18996" />
    <path
       transform="matrix(.7186 0 0 .7186 .3593 .3593)"
       d="m320.5 343.32v-29h33.01v-10.5l25.99 25-25.99 25v-10.5z"
       fill="none"
       stroke="#000"
       stroke-miterlimit="10"
       id="path18998" />
    <path
       transform="matrix(.7186 0 0 .7186 .3593 .3593)"
       d="m150.5 344.5v-29h33.01v-10.5l25.99 25-25.99 25v-10.5z"
       fill="#7ea6e0"
       id="path19000" />
    <path
       transform="matrix(.7186 0 0 .7186 .3593 .3593)"
       d="m150.5 344.5v-29h33.01v-10.5l25.99 25-25.99 25v-10.5z"
       fill="none"
       stroke="#000"
       stroke-miterlimit="10"
       id="path19002" />
    <path
       transform="matrix(.7186 0 0 .7186 .3593 .3593)"
       d="m160.49 457.35 0.02-20.87 95 0.08-0.05-10.66-23.3 0.12 33.65-15.52 33.81 15.17-23.3 0.12 0.17 31.65z"
       fill="#7ea6e0"
       id="path19004" />
    <path
       transform="matrix(.7186 0 0 .7186 .3593 .3593)"
       d="m160.49 457.35 0.02-20.87 95 0.08-0.05-10.66-23.3 0.12 33.65-15.52 33.81 15.17-23.3 0.12 0.17 31.65z"
       fill="none"
       stroke="#000"
       stroke-miterlimit="1.42"
       id="path19006" />
    <path
       transform="matrix(.7186 0 0 .7186 .3593 .3593)"
       d="m255.46 425.9-23.3 0.12 33.65-15.52 33.81 15.17-23.3 0.12"
       fill="none"
       stroke="#000"
       id="path19008" />
    <path
       transform="matrix(.7186 0 0 .7186 .3593 .3593)"
       d="m210 100h110v60h-110z"
       fill="#fff"
       id="path19010" />
    <path
       transform="matrix(.7186 0 0 .7186 .3593 .3593)"
       d="m210 100h110v60h-110z"
       fill="none"
       stroke="#000"
       id="path19012" />
    <path
       transform="matrix(.7186 0 0 .7186 .3593 .3593)"
       d="m380 100h150v60h-150z"
       fill="#fff"
       id="path19014" />
    <path
       transform="matrix(.7186 0 0 .7186 .3593 .3593)"
       d="m380 100h150v60h-150z"
       fill="none"
       stroke="#000"
       id="path19016" />
    <path
       transform="matrix(.7186 0 0 .7186 .3593 .3593)"
       d="m590 90h150v140h-150z"
       fill="#fff"
       id="path19018" />
    <path
       transform="matrix(.7186 0 0 .7186 .3593 .3593)"
       d="m590 90h150v140h-150z"
       fill="none"
       stroke="#000"
       id="path19020" />
    <path
       transform="matrix(.7186 0 0 .7186 .3593 .3593)"
       d="m530.5 204.5v-29h33.01v-10.5l25.99 25-25.99 25v-10.5z"
       fill="#7ea6e0"
       id="path19022" />
    <path
       transform="matrix(.7186 0 0 .7186 .3593 .3593)"
       d="m530.5 204.5v-29h33.01v-10.5l25.99 25-25.99 25v-10.5z"
       fill="none"
       stroke="#000"
       stroke-miterlimit="10"
       id="path19024" />
    <path
       transform="matrix(.7186 0 0 .7186 .3593 .3593)"
       d="m590 250h150v210h-150z"
       fill="#fff"
       id="path19026" />
    <path
       transform="matrix(.7186 0 0 .7186 .3593 .3593)"
       d="m590 250h150v210h-150z"
       fill="none"
       stroke="#000"
       id="path19028" />
    <path
       transform="matrix(.7186 0 0 .7186 .3593 .3593)"
       d="m530.5 358.97v-29h33.01v-10.5l25.99 25-25.99 25v-10.5z"
       fill="#7ea6e0"
       id="path19030" />
    <path
       transform="matrix(.7186 0 0 .7186 .3593 .3593)"
       d="m530.5 358.97v-29h33.01v-10.5l25.99 25-25.99 25v-10.5z"
       fill="none"
       stroke="#000"
       stroke-miterlimit="10"
       id="path19032" />
    <path
       transform="matrix(.7186 0 0 .7186 .3593 .3593)"
       d="m590 40h150v50h-150z"
       fill="#fff"
       id="path19034" />
    <path
       transform="matrix(.7186 0 0 .7186 .3593 .3593)"
       d="m590 40h150v50h-150z"
       fill="none"
       stroke="#000"
       id="path19036" />
    <path
       transform="matrix(.7186 0 0 .7186 .3593 .3593)"
       d="m590 240h150v50h-150z"
       fill="#fff"
       id="path19038" />
    <path
       transform="matrix(.7186 0 0 .7186 .3593 .3593)"
       d="m590 240h150v50h-150z"
       fill="none"
       stroke="#000"
       id="path19040" />
    <path
       transform="matrix(.7186 0 0 .7186 .3593 .3593)"
       d="m392 170h126v230h-126z"
       fill="#b1ddf0"
       id="path19042" />
    <path
       transform="matrix(.7186 0 0 .7186 .3593 .3593)"
       d="m392 170h126v230h-126z"
       fill="none"
       stroke="#000"
       id="path19044" />
    <path
       transform="matrix(.7186 0 0 .7186 .3593 .3593)"
       d="m220 180h90v60h-90z"
       fill="#fff2cc"
       id="path19046" />
    <path
       transform="matrix(.7186 0 0 .7186 .3593 .3593)"
       d="m220 180h90v60h-90z"
       fill="none"
       stroke="#000"
       id="path19048" />
    <g
       transform="scale(.7186)"
       aria-label="ODS"
       id="g19056">
      <path
         d="m252.94 215.2q-2.5317 0-4.0591-1.6685-1.519-1.6685-1.519-4.3413 0-2.8721 1.5522-4.582 1.5522-1.71 4.2251-1.71 2.4653 0 3.9678 1.6602 1.5107 1.6602 1.5107 4.3413 0 2.9136-1.544 4.6069-1.5439 1.6934-4.1338 1.6934zm0.0996-11.04q-1.876 0-3.0464 1.353-1.1704 1.353-1.1704 3.5527t1.1372 3.5444q1.1455 1.3364 2.98 1.3364 1.959 0 3.0879-1.2783 1.1289-1.2783 1.1289-3.5776 0-2.3574-1.0957-3.644-1.0957-1.2866-3.0215-1.2866z"
         id="path19050" />
      <path
         d="m261.36 215v-11.903h3.2871q6.292 0 6.292 5.8022 0 2.7559-1.7515 4.4326-1.7432 1.6685-4.6733 1.6685zm1.3945-10.642v9.3799h1.7764q2.3408 0 3.644-1.2534 1.3032-1.2534 1.3032-3.5527 0-4.5737-4.8643-4.5737z"
         id="path19052" />
      <path
         d="m273.08 214.52v-1.6436q0.28223 0.24902 0.67236 0.44824 0.39844 0.19922 0.83008 0.34033 0.43994 0.13282 0.87988 0.20752 0.43995 0.0747 0.81348 0.0747 1.2866 0 1.9175-0.47314 0.63916-0.48145 0.63916-1.3779 0-0.48145-0.21582-0.83838-0.20752-0.35694-0.58105-0.64746-0.37354-0.29883-0.88819-0.56446-0.50635-0.27392-1.0957-0.57275-0.62256-0.31543-1.1621-0.63916t-0.93799-0.71387q-0.39844-0.39013-0.63086-0.87988-0.22412-0.49805-0.22412-1.1621 0-0.81348 0.35693-1.4111 0.35694-0.60596 0.93799-0.9961 0.58106-0.39013 1.3198-0.58105 0.74707-0.19092 1.519-0.19092 1.7598 0 2.5649 0.42334v1.5688q-1.0542-0.73047-2.706-0.73047-0.45655 0-0.91309 0.0996-0.45654 0.0913-0.81348 0.30713-0.35693 0.21582-0.58105 0.55615t-0.22412 0.83008q0 0.45654 0.16601 0.78857 0.17432 0.33203 0.50635 0.60596t0.80518 0.53125q0.48144 0.25732 1.104 0.56445 0.63916 0.31543 1.2119 0.66407 0.57275 0.34863 1.0044 0.77197t0.68066 0.93799q0.25733 0.51464 0.25733 1.1787 0 0.87988-0.34863 1.4941-0.34034 0.60595-0.92969 0.98779-0.58106 0.38184-1.3447 0.54785-0.76367 0.17432-1.6104 0.17432-0.28223 0-0.69727-0.0498-0.41503-0.0415-0.84668-0.13281-0.43164-0.083-0.82177-0.20752-0.38184-0.13281-0.61426-0.29053z"
         id="path19054" />
    </g>
    <path
       transform="matrix(.7186 0 0 .7186 .3593 .3593)"
       d="m220 250h90v150h-90z"
       fill="#fff2cc"
       id="path19058" />
    <path
       transform="matrix(.7186 0 0 .7186 .3593 .3593)"
       d="m220 250h90v150h-90z"
       fill="none"
       stroke="#000"
       id="path19060" />
    <g
       transform="scale(.7186)"
       aria-label="ERP"
       id="g19068">
      <path
         d="m255.38 330h-6.3086v-11.903h6.043v1.2617h-4.6484v3.9595h4.2998v1.2534h-4.2998v4.167h4.9141z"
         id="path19062" />
      <path
         d="m268.95 330h-1.6602l-1.9922-3.3369q-0.27393-0.46485-0.53125-0.78858-0.25732-0.33203-0.53125-0.53955-0.26562-0.20752-0.58105-0.29883-0.30713-0.0996-0.69727-0.0996h-1.1455v5.0635h-1.3945v-11.903h3.5527q0.78027 0 1.436 0.19922 0.66406 0.19092 1.1455 0.58935 0.48974 0.39844 0.76367 0.9961 0.27393 0.58935 0.27393 1.3862 0 0.62256-0.19092 1.1455-0.18262 0.51464-0.53125 0.92138-0.34033 0.40674-0.83008 0.69727-0.48145 0.28222-1.0874 0.43994v0.0332q0.29883 0.13282 0.51465 0.30713 0.22412 0.16602 0.42334 0.39844 0.19921 0.23242 0.39013 0.53125 0.19922 0.29053 0.43994 0.68066zm-7.1387-10.642v4.3164h1.8926q0.52295 0 0.96289-0.15771 0.44824-0.15772 0.77197-0.44824 0.32373-0.29883 0.50635-0.72217 0.18262-0.43164 0.18262-0.96289 0-0.95459-0.62256-1.4858-0.61426-0.53955-1.7847-0.53955z"
         id="path19064" />
      <path
         d="m274.08 325.5v4.499h-1.3945v-11.903h3.2705q1.9092 0 2.9551 0.92969 1.0542 0.92968 1.0542 2.623t-1.1704 2.7725q-1.1621 1.0791-3.146 1.0791zm0-6.1426v4.8809h1.4609q1.4443 0 2.1997-0.65576 0.76368-0.66407 0.76368-1.8677 0-2.3574-2.7891-2.3574z"
         id="path19066" />
    </g>
    <path
       transform="matrix(.7186 0 0 .7186 .3593 .3593)"
       d="m590 390h150v80h-150z"
       fill="#fff"
       id="path19070" />
    <path
       transform="matrix(.7186 0 0 .7186 .3593 .3593)"
       d="m590 390h150v80h-150z"
       fill="none"
       stroke="#000"
       id="path19072" />
    <path
       transform="matrix(.7186 0 0 .7186 .3593 .3593)"
       d="m600 410c0-8.28 13.43-15 30-15 7.96 0 15.59 1.58 21.21 4.39 5.63 2.82 8.79 6.63 8.79 10.61v40c0 8.28-13.43 15-30 15s-30-6.72-30-15z"
       fill="#d5e8d4"
       id="path19074" />
    <path
       transform="matrix(.7186 0 0 .7186 .3593 .3593)"
       d="m600 410c0-8.28 13.43-15 30-15 7.96 0 15.59 1.58 21.21 4.39 5.63 2.82 8.79 6.63 8.79 10.61v40c0 8.28-13.43 15-30 15s-30-6.72-30-15z"
       fill="none"
       stroke="#000"
       stroke-miterlimit="10"
       id="path19076" />
    <path
       transform="matrix(.7186 0 0 .7186 .3593 .3593)"
       d="m660 410c0 8.28-13.43 15-30 15s-30-6.72-30-15"
       fill="none"
       stroke="#000"
       stroke-miterlimit="10"
       id="path19078" />
    <path
       transform="matrix(.7186 0 0 .7186 .3593 .3593)"
       d="m50 210h90v50h-90z"
       fill="#d5e8d4"
       id="path19080" />
    <path
       transform="matrix(.7186 0 0 .7186 .3593 .3593)"
       d="m50 210h90v50h-90z"
       fill="none"
       stroke="#000"
       id="path19082" />
    <path
       transform="matrix(.7186 0 0 .7186 .3593 .3593)"
       d="m50 270h90v60h-90z"
       fill="#fff2cc"
       id="path19084" />
    <path
       transform="matrix(.7186 0 0 .7186 .3593 .3593)"
       d="m50 270h90v60h-90z"
       fill="none"
       stroke="#000"
       id="path19086" />
    <path
       transform="matrix(.7186 0 0 .7186 .3593 .3593)"
       d="m50 340h90v60h-90z"
       fill="#d5e8d4"
       id="path19088" />
    <path
       transform="matrix(.7186 0 0 .7186 .3593 .3593)"
       d="m50 340h90v60h-90z"
       fill="none"
       stroke="#000"
       id="path19090" />
    <path
       transform="matrix(.7186 0 0 .7186 .3593 .3593)"
       d="m40 430h110v35h-110z"
       fill="#fff"
       id="path19092" />
    <path
       transform="matrix(.7186 0 0 .7186 .3593 .3593)"
       d="m40 430h110v35h-110z"
       fill="none"
       stroke="#000"
       id="path19094" />
    <path
       transform="matrix(.7186 0 0 .7186 .3593 .3593)"
       d="m220 250h90v150h-90z"
       fill="#fff2cc"
       id="path19096" />
    <path
       transform="matrix(.7186 0 0 .7186 .3593 .3593)"
       d="m220 250h90v150h-90z"
       fill="none"
       stroke="#000"
       id="path19098" />
    <path
       transform="matrix(.7186 0 0 .7186 .3593 .3593)"
       d="m220 180h90v60h-90z"
       fill="#fff2cc"
       id="path19100" />
    <path
       transform="matrix(.7186 0 0 .7186 .3593 .3593)"
       d="m220 180h90v60h-90z"
       fill="none"
       stroke="#000"
       id="path19102" />
    <path
       transform="matrix(.7186 0 0 .7186 .3593 .3593)"
       d="m670 410c0-8.28 13.43-15 30-15 7.96 0 15.59 1.58 21.21 4.39 5.63 2.82 8.79 6.63 8.79 10.61v40c0 8.28-13.43 15-30 15s-30-6.72-30-15z"
       fill="#fff2cc"
       id="path19104" />
    <path
       transform="matrix(.7186 0 0 .7186 .3593 .3593)"
       d="m670 410c0-8.28 13.43-15 30-15 7.96 0 15.59 1.58 21.21 4.39 5.63 2.82 8.79 6.63 8.79 10.61v40c0 8.28-13.43 15-30 15s-30-6.72-30-15z"
       fill="none"
       stroke="#000"
       stroke-miterlimit="10"
       id="path19106" />
    <path
       transform="matrix(.7186 0 0 .7186 .3593 .3593)"
       d="m730 410c0 8.28-13.43 15-30 15s-30-6.72-30-15"
       fill="none"
       stroke="#000"
       stroke-miterlimit="10"
       id="path19108" />
    <path
       transform="matrix(.7186 0 0 .7186 .3593 .3593)"
       d="m600 105h60v30h-60z"
       fill="#d5e8d4"
       id="path19110" />
    <path
       transform="matrix(.7186 0 0 .7186 .3593 .3593)"
       d="m600 105h60v30h-60z"
       fill="none"
       stroke="#000"
       id="path19112" />
    <path
       transform="matrix(.7186 0 0 .7186 .3593 .3593)"
       d="m600 145h60v30h-60z"
       fill="#e1d5e7"
       id="path19114" />
    <path
       transform="matrix(.7186 0 0 .7186 .3593 .3593)"
       d="m600 145h60v30h-60z"
       fill="none"
       stroke="#000"
       id="path19116" />
    <path
       transform="matrix(.7186 0 0 .7186 .3593 .3593)"
       d="m600 185h60v30h-60z"
       fill="#d5e8d4"
       id="path19118" />
    <path
       transform="matrix(.7186 0 0 .7186 .3593 .3593)"
       d="m600 185h60v30h-60z"
       fill="none"
       stroke="#000"
       id="path19120" />
    <path
       transform="matrix(.7186 0 0 .7186 .3593 .3593)"
       d="m670 145h60v30h-60z"
       fill="#e1d5e7"
       id="path19122" />
    <path
       transform="matrix(.7186 0 0 .7186 .3593 .3593)"
       d="m670 145h60v30h-60z"
       fill="none"
       stroke="#000"
       id="path19124" />
    <path
       transform="matrix(.7186 0 0 .7186 .3593 .3593)"
       d="m670 185h60v30h-60z"
       fill="#d5e8d4"
       id="path19126" />
    <path
       transform="matrix(.7186 0 0 .7186 .3593 .3593)"
       d="m670 185h60v30h-60z"
       fill="none"
       stroke="#000"
       id="path19128" />
    <path
       transform="matrix(.7186 0 0 .7186 .3593 .3593)"
       d="m600 340h60v30h-60z"
       fill="#e6cfb8"
       id="path19130" />
    <path
       transform="matrix(.7186 0 0 .7186 .3593 .3593)"
       d="m600 340h60v30h-60z"
       fill="none"
       stroke="#000"
       id="path19132" />
    <path
       transform="matrix(.7186 0 0 .7186 .3593 .3593)"
       d="m670 340h60v30h-60z"
       fill="#c99183"
       id="path19134" />
    <path
       transform="matrix(.7186 0 0 .7186 .3593 .3593)"
       d="m670 340h60v30h-60z"
       fill="none"
       stroke="#000"
       id="path19136" />
    <path
       transform="matrix(.7186 0 0 .7186 .3593 .3593)"
       d="m600 105h40v30h-40z"
       fill="#e1d5e7"
       id="path19138" />
    <path
       transform="matrix(.7186 0 0 .7186 .3593 .3593)"
       d="m600 105h40v30h-40z"
       fill="none"
       stroke="#000"
       id="path19140" />
    <path
       transform="matrix(.7186 0 0 .7186 .3593 .3593)"
       d="m650 120h10v15h-10z"
       fill="#fff2cc"
       id="path19142" />
    <path
       transform="matrix(.7186 0 0 .7186 .3593 .3593)"
       d="m650 120h10v15h-10z"
       fill="none"
       stroke="#000"
       id="path19144" />
    <path
       transform="matrix(.7186 0 0 .7186 .3593 .3593)"
       d="m670 105h60v30h-60z"
       fill="#d5e8d4"
       id="path19146" />
    <path
       transform="matrix(.7186 0 0 .7186 .3593 .3593)"
       d="m670 105h60v30h-60z"
       fill="none"
       stroke="#000"
       id="path19148" />
    <path
       transform="matrix(.7186 0 0 .7186 .3593 .3593)"
       d="m670 105h40v30h-40z"
       fill="#e1d5e7"
       id="path19150" />
    <path
       transform="matrix(.7186 0 0 .7186 .3593 .3593)"
       d="m670 105h40v30h-40z"
       fill="none"
       stroke="#000"
       id="path19152" />
    <path
       transform="matrix(.7186 0 0 .7186 .3593 .3593)"
       d="m720 120h10v15h-10z"
       fill="#fff2cc"
       id="path19154" />
    <path
       transform="matrix(.7186 0 0 .7186 .3593 .3593)"
       d="m720 120h10v15h-10z"
       fill="none"
       stroke="#000"
       id="path19156" />
    <path
       transform="matrix(.7186 0 0 .7186 .3593 .3593)"
       d="m600 145h40v30h-40z"
       fill="#d5e8d4"
       id="path19158" />
    <path
       transform="matrix(.7186 0 0 .7186 .3593 .3593)"
       d="m600 145h40v30h-40z"
       fill="none"
       stroke="#000"
       id="path19160" />
    <path
       transform="matrix(.7186 0 0 .7186 .3593 .3593)"
       d="m670 145h40v30h-40z"
       fill="#d5e8d4"
       id="path19162" />
    <path
       transform="matrix(.7186 0 0 .7186 .3593 .3593)"
       d="m670 145h40v30h-40z"
       fill="none"
       stroke="#000"
       id="path19164" />
    <path
       transform="matrix(.7186 0 0 .7186 .3593 .3593)"
       d="m640 145h10v20h-10z"
       fill="#fff2cc"
       id="path19166" />
    <path
       transform="matrix(.7186 0 0 .7186 .3593 .3593)"
       d="m640 145h10v20h-10z"
       fill="none"
       stroke="#000"
       id="path19168" />
    <path
       transform="matrix(.7186 0 0 .7186 .3593 .3593)"
       d="m710 145h10v20h-10z"
       fill="#fff2cc"
       id="path19170" />
    <path
       transform="matrix(.7186 0 0 .7186 .3593 .3593)"
       d="m710 145h10v20h-10z"
       fill="none"
       stroke="#000"
       id="path19172" />
    <path
       transform="matrix(.7186 0 0 .7186 .3593 .3593)"
       d="m600 185h40v30h-40z"
       fill="#fff2cc"
       id="path19174" />
    <path
       transform="matrix(.7186 0 0 .7186 .3593 .3593)"
       d="m600 185h40v30h-40z"
       fill="none"
       stroke="#000"
       id="path19176" />
    <path
       transform="matrix(.7186 0 0 .7186 .3593 .3593)"
       d="m670 185h40v30h-40z"
       fill="#fff2cc"
       id="path19178" />
    <path
       transform="matrix(.7186 0 0 .7186 .3593 .3593)"
       d="m670 185h40v30h-40z"
       fill="none"
       stroke="#000"
       id="path19180" />
    <path
       transform="matrix(.7186 0 0 .7186 .3593 .3593)"
       d="m650 190h10v20h-10z"
       fill="#e1d5e7"
       id="path19182" />
    <path
       transform="matrix(.7186 0 0 .7186 .3593 .3593)"
       d="m650 190h10v20h-10z"
       fill="none"
       stroke="#000"
       id="path19184" />
    <path
       transform="matrix(.7186 0 0 .7186 .3593 .3593)"
       d="m720 190h10v20h-10z"
       fill="#e1d5e7"
       id="path19186" />
    <path
       transform="matrix(.7186 0 0 .7186 .3593 .3593)"
       d="m720 190h10v20h-10z"
       fill="none"
       stroke="#000"
       id="path19188" />
    <path
       transform="matrix(.7186 0 0 .7186 .3593 .3593)"
       d="m600 300h60v30h-60z"
       fill="#d5e8d4"
       id="path19190" />
    <path
       transform="matrix(.7186 0 0 .7186 .3593 .3593)"
       d="m600 300h60v30h-60z"
       fill="none"
       stroke="#000"
       id="path19192" />
    <path
       transform="matrix(.7186 0 0 .7186 .3593 .3593)"
       d="m600 300h40v30h-40z"
       fill="#fff2cc"
       id="path19194" />
    <path
       transform="matrix(.7186 0 0 .7186 .3593 .3593)"
       d="m600 300h40v30h-40z"
       fill="none"
       stroke="#000"
       id="path19196" />
    <path
       transform="matrix(.7186 0 0 .7186 .3593 .3593)"
       d="m650 315h10v15h-10z"
       fill="#e1d5e7"
       id="path19198" />
    <path
       transform="matrix(.7186 0 0 .7186 .3593 .3593)"
       d="m650 315h10v15h-10z"
       fill="none"
       stroke="#000"
       id="path19200" />
    <path
       transform="matrix(.7186 0 0 .7186 .3593 .3593)"
       d="m670 300h60v30h-60z"
       fill="#d5e8d4"
       id="path19202" />
    <path
       transform="matrix(.7186 0 0 .7186 .3593 .3593)"
       d="m670 300h60v30h-60z"
       fill="none"
       stroke="#000"
       id="path19204" />
    <path
       transform="matrix(.7186 0 0 .7186 .3593 .3593)"
       d="m670 300h40v30h-40z"
       fill="#e1d5e7"
       id="path19206" />
    <path
       transform="matrix(.7186 0 0 .7186 .3593 .3593)"
       d="m670 300h40v30h-40z"
       fill="none"
       stroke="#000"
       id="path19208" />
    <path
       transform="matrix(.7186 0 0 .7186 .3593 .3593)"
       d="m720 315h10v15h-10z"
       fill="#fff2cc"
       id="path19210" />
    <path
       transform="matrix(.7186 0 0 .7186 .3593 .3593)"
       d="m720 315h10v15h-10z"
       fill="none"
       stroke="#000"
       id="path19212" />
    <path
       transform="matrix(.7186 0 0 .7186 .3593 .3593)"
       d="m640 340h20v30h-20z"
       fill="#d5e8d4"
       id="path19214" />
    <path
       transform="matrix(.7186 0 0 .7186 .3593 .3593)"
       d="m640 340h20v30h-20z"
       fill="none"
       stroke="#000"
       id="path19216" />
    <path
       transform="matrix(.7186 0 0 .7186 .3593 .3593)"
       d="m600 360h50v10h-50z"
       fill="#e1d5e7"
       id="path19218" />
    <path
       transform="matrix(.7186 0 0 .7186 .3593 .3593)"
       d="m600 360h50v10h-50z"
       fill="none"
       stroke="#000"
       id="path19220" />
    <path
       transform="matrix(.7186 0 0 .7186 .3593 .3593)"
       d="m600 340h10v30h-10z"
       fill="#ffe6cc"
       id="path19222" />
    <path
       transform="matrix(.7186 0 0 .7186 .3593 .3593)"
       d="m600 340h10v30h-10z"
       fill="none"
       stroke="#000"
       id="path19224" />
    <path
       transform="matrix(.7186 0 0 .7186 .3593 .3593)"
       d="m712.5 340h17.5v30h-17.5z"
       fill="#e1d5e7"
       id="path19226" />
    <path
       transform="matrix(.7186 0 0 .7186 .3593 .3593)"
       d="m712.5 340h17.5v30h-17.5z"
       fill="none"
       stroke="#000"
       id="path19228" />
    <path
       transform="matrix(.7186 0 0 .7186 .3593 .3593)"
       d="m672.5 360h50v10h-50z"
       fill="#e6cfb8"
       id="path19230" />
    <path
       transform="matrix(.7186 0 0 .7186 .3593 .3593)"
       d="m672.5 360h50v10h-50z"
       fill="none"
       stroke="#000"
       id="path19232" />
    <path
       transform="matrix(.7186 0 0 .7186 .3593 .3593)"
       d="m670 340h10v30h-10z"
       fill="#d5e8d4"
       id="path19234" />
    <path
       transform="matrix(.7186 0 0 .7186 .3593 .3593)"
       d="m670 340h10v30h-10z"
       fill="none"
       stroke="#000"
       id="path19236" />
    <g
       font-family="Verdana"
       letter-spacing="0px"
       stroke-width=".75"
       word-spacing="0px"
       id="g19320">
      <g
         font-size="6px"
         id="g19244">
        <text
           transform="translate(76.448,33.946)"
           x="187.87488"
           y="59.695686"
           style="line-height:1.25;white-space:pre;inline-size:126.738;display:inline"
           xml:space="preserve"
           id="text19238" />
        <text
           transform="translate(78.311,151.48)"
           x="187.87488"
           y="59.695686"
           style="line-height:1.25;white-space:pre;inline-size:126.738;display:inline"
           xml:space="preserve"
           id="text19240" />
        <text
           transform="translate(224.1,-8.7111)"
           x="187.87488"
           y="59.695686"
           style="line-height:1.25;white-space:pre;inline-size:127.284;display:inline"
           xml:space="preserve"
           id="text19242" />
      </g>
      <g
         font-size="9px"
         id="g19252">
        <text
           transform="translate(194,29.948)"
           x="187.87488"
           y="59.695686"
           style="line-height:1.25;white-space:pre;inline-size:127.284;display:inline"
           xml:space="preserve"
           id="text19246" />
        <text
           transform="translate(194.36,58.486)"
           x="187.87488"
           y="59.695686"
           style="line-height:1.25;white-space:pre;inline-size:127.284;display:inline"
           xml:space="preserve"
           id="text19248" />
        <text
           transform="translate(243.77,29.925)"
           x="187.87488"
           y="59.695686"
           style="line-height:1.25;white-space:pre;inline-size:127.284;display:inline"
           xml:space="preserve"
           id="text19250" />
      </g>
      <g
         font-size="6px"
         id="g19266">
        <text
           transform="translate(227,135.65)"
           x="187.87488"
           y="59.695686"
           style="line-height:1.25;white-space:pre;inline-size:127.284;display:inline"
           xml:space="preserve"
           id="text19254" />
        <text
           transform="translate(-161.2,77.819)"
           x="187.87488"
           y="59.695686"
           style="line-height:1.25;white-space:pre;inline-size:84.8366;display:inline"
           xml:space="preserve"
           id="text19256" />
        <text
           transform="translate(-161.24,113.7)"
           x="187.87488"
           y="59.695686"
           style="line-height:1.25;white-space:pre;inline-size:84.8366;display:inline"
           xml:space="preserve"
           id="text19258" />
        <text
           transform="translate(-162.03,210.07)"
           x="187.87488"
           y="59.695686"
           style="line-height:1.25;white-space:pre;inline-size:84.8366;display:inline"
           xml:space="preserve"
           id="text19260" />
        <text
           transform="translate(-163.38,159.7)"
           x="187.87488"
           y="59.695686"
           style="line-height:1.25;white-space:pre;inline-size:84.8366;display:inline"
           xml:space="preserve"
           id="text19262" />
        <text
           transform="translate(-160.94,31.934)"
           x="187.87488"
           y="59.695686"
           style="line-height:1.25;white-space:pre;inline-size:84.8366;display:inline"
           xml:space="preserve"
           id="text19264" />
      </g>
      <text
         transform="translate(-161.47,265.84)"
         x="187.87488"
         y="59.695686"
         font-size="11px"
         style="line-height:1.25;white-space:pre;inline-size:84.8366;display:inline"
         xml:space="preserve"
         id="text19268" />
      <text
         transform="translate(-10.679,-23.315)"
         x="187.87488"
         y="59.695686"
         font-size="22px"
         style="line-height:1.25;font-variant-ligatures:normal;font-variant-caps:normal;font-variant-numeric:normal;font-variant-east-asian:normal;white-space:pre;inline-size:199.531;display:inline"
         xml:space="preserve"
         id="text19270" />
      <g
         font-size="6px"
         id="g19292">
        <text
           transform="translate(-105.69,113.51)"
           x="187.87488"
           y="59.695686"
           style="line-height:1.25;white-space:pre;inline-size:84.8366;display:inline"
           xml:space="preserve"
           id="text19272" />
        <text
           transform="translate(15.11,114)"
           x="187.87488"
           y="59.695686"
           style="line-height:1.25;white-space:pre;inline-size:84.8366;display:inline"
           xml:space="preserve"
           id="text19274" />
        <text
           transform="translate(168.74,81.757)"
           x="187.87488"
           y="59.695686"
           style="line-height:1.25;white-space:pre;inline-size:84.8366;display:inline"
           xml:space="preserve"
           id="text19276" />
        <text
           transform="translate(167.71,192.65)"
           x="187.87488"
           y="59.695686"
           style="line-height:1.25;white-space:pre;inline-size:84.8366;display:inline"
           xml:space="preserve"
           id="text19278" />
        <text
           transform="translate(16.7,181.29)"
           x="187.87488"
           y="59.695686"
           style="line-height:1.25;white-space:pre;inline-size:84.8366;display:inline"
           xml:space="preserve"
           id="text19280" />
        <text
           transform="translate(-106.08,181.35)"
           x="187.87488"
           y="59.695686"
           style="line-height:1.25;white-space:pre;inline-size:84.8366;display:inline"
           xml:space="preserve"
           id="text19282" />
        <text
           transform="translate(-68.377,266.38)"
           x="187.87488"
           y="59.695686"
           style="line-height:1.25;white-space:pre;inline-size:84.8366;display:inline"
           xml:space="preserve"
           id="text19284" />
        <text
           transform="translate(-40.08,31.203)"
           x="187.87488"
           y="59.695686"
           style="line-height:1.25;white-space:pre;inline-size:84.8366;display:inline"
           xml:space="preserve"
           id="text19286" />
        <text
           transform="translate(-40.843,181.47)"
           x="187.87488"
           y="59.695686"
           style="line-height:1.25;white-space:pre;inline-size:84.8366;display:inline"
           xml:space="preserve"
           id="text19288" />
        <text
           transform="translate(-40.887,98.33)"
           x="187.87488"
           y="59.695686"
           style="line-height:1.25;white-space:pre;inline-size:84.8366;display:inline"
           xml:space="preserve"
           id="text19290" />
      </g>
      <g
         font-size="9px"
         id="g19300">
        <text
           transform="translate(243.67,58.407)"
           x="187.87488"
           y="59.695686"
           style="line-height:1.25;white-space:pre;inline-size:127.284;display:inline"
           xml:space="preserve"
           id="text19294" />
        <text
           transform="translate(194.36,87.424)"
           x="187.87488"
           y="59.695686"
           style="line-height:1.25;white-space:pre;inline-size:127.284;display:inline"
           xml:space="preserve"
           id="text19296" />
        <text
           transform="translate(193.39,170.14)"
           x="187.87488"
           y="59.695686"
           style="line-height:1.25;white-space:pre;inline-size:127.284;display:inline"
           xml:space="preserve"
           id="text19298" />
      </g>
      <text
         transform="translate(245.47,257.08)"
         x="187.87488"
         y="59.695686"
         font-size="8px"
         style="line-height:1.25;white-space:pre;inline-size:127.284;display:inline"
         xml:space="preserve"
         id="text19302" />
      <text
         transform="translate(295.8,256.62)"
         x="187.87488"
         y="59.695686"
         font-size="8px"
         style="line-height:1.25;white-space:pre;inline-size:127.284;display:inline"
         xml:space="preserve"
         id="text19304" />
      <g
         font-size="9px"
         id="g19314">
        <text
           transform="translate(197.98,195.52)"
           x="187.87488"
           y="59.695686"
           style="line-height:1.25;white-space:pre;inline-size:127.284;display:inline"
           xml:space="preserve"
           id="text19306" />
        <text
           transform="translate(244.78,170.03)"
           x="187.87488"
           y="59.695686"
           style="line-height:1.25;white-space:pre;inline-size:127.284;display:inline"
           xml:space="preserve"
           id="text19308" />
        <text
           transform="translate(249.29,194.83)"
           x="187.87488"
           y="59.695686"
           style="line-height:1.25;white-space:pre;inline-size:127.284;display:inline"
           xml:space="preserve"
           id="text19310" />
        <text
           transform="translate(244.06,86.883)"
           x="187.87488"
           y="59.695686"
           style="line-height:1.25;white-space:pre;inline-size:127.284;display:inline"
           xml:space="preserve"
           id="text19312" />
      </g>
      <text
         x="-22.345547"
         y="51.952682"
         font-size="6px"
         style="line-height:1.25"
         xml:space="preserve"
         id="text19318"><tspan
           stroke-width=".75"
           id="tspan19316" /></text>
    </g>
  </g>
  <text
     xml:space="preserve"
     style="font-size:6px;line-height:1.25;font-family:Verdana;text-align:center;letter-spacing:0px;word-spacing:0px;text-anchor:middle;white-space:pre;inline-size:127.284;display:inline;stroke-width:0.75"
     x="220.0575"
     y="59.695686"
     id="text6349-1"
     transform="translate(257.13705,-9.3310834)"><tspan
       x="220.0575"
       y="59.695686"
       id="tspan27654"><tspan
         style="font-size:12px;-inkscape-font-specification:'Verdana, Normal'"
         id="tspan27652">Data Marts</tspan></tspan></text>
  <text
     xml:space="preserve"
     style="font-size:6px;line-height:1.25;font-family:Verdana;text-align:center;letter-spacing:0px;word-spacing:0px;text-anchor:middle;white-space:pre;inline-size:127.284;display:inline;stroke-width:0.75"
     x="233.03015"
     y="59.695686"
     id="text6349-1-1"
     transform="translate(247.10852,135.05826)"><tspan
       x="233.03015"
       y="59.695686"
       id="tspan27658"><tspan
         style="font-size:12px;-inkscape-font-specification:'Verdana, Normal'"
         id="tspan27656">Strategic Marts</tspan></tspan></text>
  <text
     xml:space="preserve"
     style="font-size:7px;line-height:1.25;font-family:Verdana;text-align:center;letter-spacing:0px;word-spacing:0px;text-anchor:middle;white-space:pre;inline-size:127.284;display:inline;stroke-width:0.75"
     x="207.33508"
     y="59.695686"
     id="text6349-1-14-8-2-9"
     transform="translate(245.05621,257.86077)"><tspan
       x="207.33508"
       y="59.695686"
       id="tspan27660">Exploration
</tspan><tspan
       x="207.33508"
       y="68.445688"
       id="tspan27662"> &amp; Mining</tspan></text>
  <text
     xml:space="preserve"
     style="font-size:7px;line-height:1.25;font-family:Verdana;text-align:center;letter-spacing:0px;word-spacing:0px;text-anchor:middle;white-space:pre;inline-size:127.284;display:inline;stroke-width:0.75"
     x="207.33508"
     y="59.695686"
     id="text6349-1-14-8-2-9-5"
     transform="translate(295.73644,257.29045)"><tspan
       x="207.33508"
       y="59.695686"
       id="tspan27664">Exploration
</tspan><tspan
       x="207.33508"
       y="68.445688"
       id="tspan27666"> &amp; Mining</tspan></text>
  <text
     xml:space="preserve"
     style="font-size:9px;line-height:1.25;font-family:Verdana;text-align:center;letter-spacing:0px;word-spacing:0px;text-anchor:middle;white-space:pre;inline-size:127.284;display:inline;stroke-width:0.75"
     x="197.53186"
     y="59.695686"
     id="text6349-1-14-88"
     transform="translate(302.97174,195.20459)"><tspan
       x="197.53186"
       y="59.695686"
       id="tspan27670"><tspan
         style="-inkscape-font-specification:'Verdana, Normal'"
         id="tspan27668">Mart</tspan></tspan></text>
  <text
     xml:space="preserve"
     style="font-size:9px;line-height:1.25;font-family:Verdana;text-align:center;letter-spacing:0px;word-spacing:0px;text-anchor:middle;white-space:pre;inline-size:127.284;display:inline;stroke-width:0.75"
     x="197.53186"
     y="59.695686"
     id="text6349-1-14-90"
     transform="translate(251.2635,195.32978)"><tspan
       x="197.53186"
       y="59.695686"
       id="tspan27674"><tspan
         style="-inkscape-font-specification:'Verdana, Normal'"
         id="tspan27672">Mart</tspan></tspan></text>
  <text
     xml:space="preserve"
     style="font-size:9px;line-height:1.25;font-family:Verdana;text-align:center;letter-spacing:0px;word-spacing:0px;text-anchor:middle;white-space:pre;inline-size:127.284;display:inline;stroke-width:0.75"
     x="197.53186"
     y="59.695686"
     id="text6349-1-14-93"
     transform="translate(297.14717,170.95717)"><tspan
       x="197.53186"
       y="59.695686"
       id="tspan27678"><tspan
         style="-inkscape-font-specification:'Verdana, Normal'"
         id="tspan27676">Mart</tspan></tspan></text>
  <text
     xml:space="preserve"
     style="font-size:6px;line-height:1.25;font-family:Verdana;text-align:center;letter-spacing:0px;word-spacing:0px;text-anchor:middle;white-space:pre;inline-size:84.8366;display:inline;stroke-width:0.75"
     x="198.12585"
     y="59.695686"
     id="text6349-1-3-9-76-6"
     transform="translate(199.37781,192.103)"><tspan
       x="198.12585"
       y="59.695686"
       id="tspan27682"><tspan
         style="font-size:12px;-inkscape-font-specification:'Verdana, Normal'"
         id="tspan27680">ETL</tspan></tspan></text>
  <text
     xml:space="preserve"
     style="font-size:11px;line-height:1.25;font-family:Verdana;text-align:center;letter-spacing:0px;word-spacing:0px;text-anchor:middle;white-space:pre;inline-size:84.8366;display:inline;stroke-width:0.75"
     x="224.6239"
     y="59.695686"
     id="text6349-1-3-4-2"
     transform="translate(-156.32559,265.43329)"><tspan
       x="224.6239"
       y="59.695686"
       id="tspan27686"><tspan
         style="-inkscape-font-specification:'Verdana, Normal'"
         id="tspan27684">External Data</tspan></tspan></text>
  <text
     xml:space="preserve"
     style="font-size:9px;line-height:1.25;font-family:Verdana;text-align:center;letter-spacing:0px;word-spacing:0px;text-anchor:middle;white-space:pre;inline-size:127.284;display:inline;stroke-width:0.75"
     x="197.53186"
     y="59.695686"
     id="text6349-1-14"
     transform="translate(247.87689,170.70151)"><tspan
       x="197.53186"
       y="59.695686"
       id="tspan27690"><tspan
         style="-inkscape-font-specification:'Verdana, Normal'"
         id="tspan27688">Mart</tspan></tspan></text>
  <text
     xml:space="preserve"
     style="font-size:9px;line-height:1.25;font-family:Verdana;text-align:center;letter-spacing:0px;word-spacing:0px;text-anchor:middle;white-space:pre;inline-size:127.284;display:inline;stroke-width:0.75"
     x="197.53186"
     y="59.695686"
     id="text6349-1-14-3"
     transform="translate(299.20505,87.403064)"><tspan
       x="197.53186"
       y="59.695686"
       id="tspan27694"><tspan
         style="-inkscape-font-specification:'Verdana, Normal'"
         id="tspan27692">Mart</tspan></tspan></text>
  <text
     xml:space="preserve"
     style="font-size:9px;line-height:1.25;font-family:Verdana;text-align:center;letter-spacing:0px;word-spacing:0px;text-anchor:middle;white-space:pre;inline-size:127.284;display:inline;stroke-width:0.75"
     x="197.53186"
     y="59.695686"
     id="text6349-1-14-9"
     transform="translate(246.71803,87.09428)"><tspan
       x="197.53186"
       y="59.695686"
       id="tspan27698"><tspan
         style="-inkscape-font-specification:'Verdana, Normal'"
         id="tspan27696">Mart</tspan></tspan></text>
  <text
     xml:space="preserve"
     style="font-size:9px;line-height:1.25;font-family:Verdana;text-align:center;letter-spacing:0px;word-spacing:0px;text-anchor:middle;white-space:pre;inline-size:127.284;display:inline;stroke-width:0.75"
     x="197.53186"
     y="59.695686"
     id="text6349-1-14-4"
     transform="translate(298.02172,58.79761)"><tspan
       x="197.53186"
       y="59.695686"
       id="tspan27702"><tspan
         style="-inkscape-font-specification:'Verdana, Normal'"
         id="tspan27700">Mart</tspan></tspan></text>
  <text
     xml:space="preserve"
     style="font-size:9px;line-height:1.25;font-family:Verdana;text-align:center;letter-spacing:0px;word-spacing:0px;text-anchor:middle;white-space:pre;inline-size:127.284;display:inline;stroke-width:0.75"
     x="197.53186"
     y="59.695686"
     id="text6349-1-14-8"
     transform="translate(298.44367,30.11537)"><tspan
       x="197.53186"
       y="59.695686"
       id="tspan27706"><tspan
         style="-inkscape-font-specification:'Verdana, Normal'"
         id="tspan27704">Mart</tspan></tspan></text>
  <text
     xml:space="preserve"
     style="font-size:9px;line-height:1.25;font-family:Verdana;text-align:center;letter-spacing:0px;word-spacing:0px;text-anchor:middle;white-space:pre;inline-size:127.284;display:inline;stroke-width:0.75"
     x="197.53186"
     y="59.695686"
     id="text6349-1-14-1"
     transform="translate(247.45591,58.254488)"><tspan
       x="197.53186"
       y="59.695686"
       id="tspan27710"><tspan
         style="-inkscape-font-specification:'Verdana, Normal'"
         id="tspan27708">Mart</tspan></tspan></text>
  <text
     xml:space="preserve"
     style="font-size:9px;line-height:1.25;font-family:Verdana;text-align:center;letter-spacing:0px;word-spacing:0px;text-anchor:middle;white-space:pre;inline-size:127.284;display:inline;stroke-width:0.75"
     x="197.53186"
     y="59.695686"
     id="text6349-1-14-2"
     transform="translate(247.31464,29.317288)"><tspan
       x="197.53186"
       y="59.695686"
       id="tspan27714"><tspan
         style="-inkscape-font-specification:'Verdana, Normal'"
         id="tspan27712">Mart</tspan></tspan></text>
  <text
     xml:space="preserve"
     style="font-size:6px;line-height:1.25;font-family:Verdana;text-align:center;letter-spacing:0px;word-spacing:0px;text-anchor:middle;white-space:pre;inline-size:84.8366;display:inline;stroke-width:0.75"
     x="198.12585"
     y="59.695686"
     id="text6349-1-3-9-6"
     transform="translate(-40.167139,266.25432)"><tspan
       x="198.12585"
       y="59.695686"
       id="tspan27718"><tspan
         style="font-size:12px;-inkscape-font-specification:'Verdana, Normal'"
         id="tspan27716">ETL</tspan></tspan></text>
  <text
     xml:space="preserve"
     style="font-size:6px;line-height:1.25;font-family:Verdana;text-align:center;letter-spacing:0px;word-spacing:0px;text-anchor:middle;white-space:pre;inline-size:84.8366;display:inline;stroke-width:0.75"
     x="198.12585"
     y="59.695686"
     id="text6349-1-3-9-73"
     transform="translate(49.100779,181.45203)"><tspan
       x="198.12585"
       y="59.695686"
       id="tspan27722"><tspan
         style="font-size:12px;-inkscape-font-specification:'Verdana, Normal'"
         id="tspan27720">ETL</tspan></tspan></text>
  <text
     xml:space="preserve"
     style="font-size:6px;line-height:1.25;font-family:Verdana;text-align:center;letter-spacing:0px;word-spacing:0px;text-anchor:middle;white-space:pre;inline-size:84.8366;display:inline;stroke-width:0.75"
     x="198.12585"
     y="59.695686"
     id="text6349-1-3-9-76"
     transform="translate(47.469386,113.20828)"><tspan
       x="198.12585"
       y="59.695686"
       id="tspan27726"><tspan
         style="font-size:12px;-inkscape-font-specification:'Verdana, Normal'"
         id="tspan27724">ETL</tspan></tspan></text>
  <text
     xml:space="preserve"
     style="font-size:6px;line-height:1.25;font-family:Verdana;text-align:center;letter-spacing:0px;word-spacing:0px;text-anchor:middle;white-space:pre;inline-size:84.8366;display:inline;stroke-width:0.75"
     x="198.12585"
     y="59.695686"
     id="text6349-1-3-9-76-5"
     transform="translate(197.08687,81.906669)"><tspan
       x="198.12585"
       y="59.695686"
       id="tspan27730"><tspan
         style="font-size:12px;-inkscape-font-specification:'Verdana, Normal'"
         id="tspan27728">ETL</tspan></tspan></text>
  <text
     xml:space="preserve"
     style="font-size:6px;line-height:1.25;font-family:Verdana;text-align:center;letter-spacing:0px;word-spacing:0px;text-anchor:middle;white-space:pre;inline-size:84.8366;display:inline;stroke-width:0.75"
     x="198.12585"
     y="59.695686"
     id="text6349-1-3-9-7"
     transform="translate(-73.968588,182.43986)"><tspan
       x="198.12585"
       y="59.695686"
       id="tspan27734"><tspan
         style="font-size:12px;-inkscape-font-specification:'Verdana, Normal'"
         id="tspan27732">ETL</tspan></tspan></text>
  <text
     xml:space="preserve"
     style="font-size:6px;line-height:1.25;font-family:Verdana;text-align:center;letter-spacing:0px;word-spacing:0px;text-anchor:middle;white-space:pre;inline-size:84.8366;display:inline;stroke-width:0.75"
     x="198.12585"
     y="59.695686"
     id="text6349-1-3-9"
     transform="translate(-72.839213,114.19917)"><tspan
       x="198.12585"
       y="59.695686"
       id="tspan27738"><tspan
         style="font-size:12px;-inkscape-font-specification:'Verdana, Normal'"
         id="tspan27736">ETL</tspan></tspan></text>
  <text
     xml:space="preserve"
     style="font-size:6px;line-height:1.25;font-family:Verdana;text-align:center;letter-spacing:0px;word-spacing:0px;text-anchor:middle;white-space:pre;inline-size:126.738;display:inline;stroke-width:0.75"
     x="218.68933"
     y="59.695686"
     id="text6349-0"
     transform="translate(108.12942,146.38369)"><tspan
       x="218.68933"
       y="59.695686"
       id="tspan27742"><tspan
         style="font-size:12px;-inkscape-font-specification:'Verdana, Normal'"
         id="tspan27740">Data Vault</tspan></tspan></text>
  <text
     xml:space="preserve"
     style="font-size:6px;line-height:1.25;font-family:Verdana;text-align:center;letter-spacing:0px;word-spacing:0px;text-anchor:middle;white-space:pre;inline-size:84.8366;display:inline;stroke-width:0.75"
     x="198.69421"
     y="59.695686"
     id="text6349-1-3-9-7-5"
     transform="translate(-7.8490374,176.69958)"><tspan
       x="198.69421"
       y="59.695686"
       id="tspan27746"><tspan
         style="font-size:12px;-inkscape-font-specification:'Verdana, Normal'"
         id="tspan27744">ERP</tspan></tspan></text>
  <text
     xml:space="preserve"
     style="font-size:6px;line-height:1.25;font-family:Verdana;text-align:center;letter-spacing:0px;word-spacing:0px;text-anchor:middle;white-space:pre;inline-size:84.8366;display:inline;stroke-width:0.75"
     x="200.24402"
     y="59.695686"
     id="text6349-1-3-8-7"
     transform="translate(-129.79524,210.8241)"><tspan
       x="200.24402"
       y="59.695686"
       id="tspan27750"><tspan
         style="font-size:12px;-inkscape-font-specification:'Verdana, Normal'"
         id="tspan27748">SCM</tspan></tspan></text>
  <text
     xml:space="preserve"
     style="font-size:6px;line-height:1.25;font-family:Verdana;text-align:center;letter-spacing:0px;word-spacing:0px;text-anchor:middle;white-space:pre;inline-size:84.8366;display:inline;stroke-width:0.75"
     x="200.63953"
     y="59.695686"
     id="text6349-1-3-9-7-5-0"
     transform="translate(-8.2150537,94.583823)"><tspan
       x="200.63953"
       y="59.695686"
       id="tspan27754"><tspan
         style="font-size:12px;-inkscape-font-specification:'Verdana, Normal'"
         id="tspan27752">ODS</tspan></tspan></text>
  <text
     xml:space="preserve"
     style="font-size:6px;line-height:1.25;font-family:Verdana;text-align:center;letter-spacing:0px;word-spacing:0px;text-anchor:middle;white-space:pre;inline-size:84.8366;display:inline;stroke-width:0.75"
     x="198.69421"
     y="59.695686"
     id="text6349-1-3-8-1"
     transform="translate(-131.5538,160.5948)"><tspan
       x="198.69421"
       y="59.695686"
       id="tspan27758"><tspan
         style="font-size:12px;-inkscape-font-specification:'Verdana, Normal'"
         id="tspan27756">ERP</tspan></tspan></text>
  <text
     xml:space="preserve"
     style="font-size:6px;line-height:1.25;font-family:Verdana;text-align:center;letter-spacing:0px;word-spacing:0px;text-anchor:middle;white-space:pre;inline-size:84.8366;display:inline;stroke-width:0.75"
     x="216.57996"
     y="59.695686"
     id="text6349-1-3"
     transform="translate(-148.49009,77.945109)"><tspan
       x="216.57996"
       y="59.695686"
       id="tspan27762"><tspan
         style="font-size:12px;-inkscape-font-specification:'Verdana, Normal'"
         id="tspan27760">Marketing</tspan></tspan></text>
  <metadata
     id="metadata19324">
    <rdf:RDF>
      <cc:Work
         rdf:about="">
        <dc:title>Data Warehouse</dc:title>
        <dc:subject>
          <rdf:Bag>
            <rdf:li>data warehouse</rdf:li>
            <rdf:li>ETL</rdf:li>
          </rdf:Bag>
        </dc:subject>
      </cc:Work>
    </rdf:RDF>
  </metadata>
  <text
     xml:space="preserve"
     style="font-style:normal;font-variant:normal;font-weight:normal;font-stretch:normal;font-size:22px;line-height:1.25;font-family:Verdana;-inkscape-font-specification:'Verdana, Normal';font-variant-ligatures:normal;font-variant-caps:normal;font-variant-numeric:normal;font-variant-east-asian:normal;text-align:center;letter-spacing:0px;word-spacing:0px;text-anchor:middle;white-space:pre;inline-size:199.531;display:inline;stroke-width:0.75"
     x="277.22839"
     y="59.695686"
     id="text6349-1-3-3"
     transform="translate(-2.1330126,-23.088228)"><tspan
       x="277.22839"
       y="59.695686"
       id="tspan27764">Data Warehouse</tspan></text>
  <text
     xml:space="preserve"
     style="font-size:6px;line-height:1.25;font-family:Verdana;text-align:center;letter-spacing:0px;word-spacing:0px;writing-mode:lr-tb;direction:ltr;text-anchor:middle;white-space:pre;inline-size:126.738;display:inline;stroke-width:0.75"
     x="236.61316"
     y="59.695686"
     id="text6349"
     transform="translate(91.818126,32.969764)"><tspan
       x="236.61316"
       y="59.695686"
       id="tspan27768"><tspan
         style="font-size:12px;-inkscape-font-specification:'Verdana, Normal'"
         id="tspan27766">Data Warehouse</tspan></tspan></text>
  <text
     xml:space="preserve"
     style="font-size:6px;line-height:1.25;font-family:Verdana;text-align:center;letter-spacing:0px;word-spacing:0px;text-anchor:middle;white-space:pre;inline-size:84.8366;display:inline;stroke-width:0.75"
     x="222.33093"
     y="59.695686"
     id="text6349-1-3-4"
     transform="translate(-155.06913,30.629782)"><tspan
       x="222.33093"
       y="59.695686"
       id="tspan27772"><tspan
         style="font-size:12px;-inkscape-font-specification:'Verdana, Normal'"
         id="tspan27770">Operational</tspan><tspan
         y="59.695686"
         id="tspan27774"> </tspan></tspan><tspan
       x="222.33093"
       y="74.695686"
       id="tspan27778"><tspan
         style="font-size:12px;-inkscape-font-specification:'Verdana, Normal'"
         id="tspan27776">Systems</tspan></tspan></text>
  <text
     xml:space="preserve"
     style="font-size:6px;line-height:1.25;font-family:Verdana;text-align:center;letter-spacing:0px;word-spacing:0px;text-anchor:middle;white-space:pre;inline-size:84.8366;display:inline;stroke-width:0.75"
     x="220.98035"
     y="59.695686"
     id="text6349-1-2"
     transform="translate(-30.388226,31.427787)"><tspan
       x="220.98035"
       y="59.695686"
       id="tspan27782"><tspan
         style="font-size:12px;-inkscape-font-specification:'Verdana, Normal'"
         id="tspan27780">Integration</tspan><tspan
         y="59.695686"
         id="tspan27784"> </tspan></tspan><tspan
       x="220.98035"
       y="74.695686"
       id="tspan27788"><tspan
         style="font-size:12px;-inkscape-font-specification:'Verdana, Normal'"
         id="tspan27786">Layer</tspan></tspan></text>
  <text
     xml:space="preserve"
     style="font-size:6px;line-height:1.25;font-family:Verdana;text-align:center;letter-spacing:0px;word-spacing:0px;text-anchor:middle;white-space:pre;inline-size:84.8366;display:inline;stroke-width:0.75"
     x="203.28796"
     y="59.695686"
     id="text6349-1-3-8"
     transform="translate(-135.91481,114.1767)"><tspan
       x="203.28796"
       y="59.695686"
       id="tspan27792"><tspan
         style="font-size:12px;-inkscape-font-specification:'Verdana, Normal'"
         id="tspan27790">Sales</tspan></tspan></text>
</svg>
